<svg xmlns="http://www.w3.org/2000/svg" width="558" height="323" viewBox="0 0 558 323">
  <g fill="none" fill-rule="evenodd" transform="translate(118 3)">
    <path fill="#E5F1F6" fill-rule="nonzero" d="M321.650262,111.179545 C321.650262,49.9284091 249.676629,0.277045455 160.891461,0.277045455 C72.1062921,0.277045455 0.205018727,49.9284091 0.205018727,111.179545 L0.205018727,262.205455 C0.205018727,292.812955 72.1665918,317.614545 160.95176,317.614545 C249.736929,317.614545 321.650262,292.764773 321.650262,262.205455 L321.650262,111.1675 L321.650262,111.179545 Z"/>
    <ellipse cx="160.928" cy="262.193" fill="#E5F1F6" fill-rule="nonzero" rx="160.747" ry="55.445"/>
    <path fill="#2C326B" fill-rule="nonzero" d="M64.556779,80.4756818 L248.181199,80.4756818 C250.519296,80.4788743 252.760361,81.4096283 254.411384,83.0631882 C256.062407,84.7167481 256.988144,86.9576624 256.984944,89.2929545 L256.984952,207.6275 L55.7650852,207.6275 L55.7650936,89.2929545 C55.7584213,84.4346537 59.6926554,80.4889695 64.556779,80.4756818 Z"/>
    <polygon fill="#2C326B" fill-rule="nonzero" points="283.408 252.75 29.342 252.75 55.765 207.627 256.985 207.627"/>
    <polygon fill="#1D244C" fill-rule="nonzero" points="266.995 235.982 251.956 210.265 60.794 210.265 45.743 235.982"/>
    <polygon fill="#1D244C" fill-rule="nonzero" points="114.581 249.63 198.157 249.63 196.275 238.885 116.463 238.885"/>
    <path fill="#F2F6FD" fill-rule="nonzero" d="M73.1555056,89.1363636 L239.582472,89.1363636 C244.244831,89.1363636 248.024419,92.9114172 248.024419,97.5681818 L248.024419,198.966818 L64.7135581,198.966818 L64.7135581,97.5681818 C64.7135581,92.9114172 68.4931467,89.1363636 73.1555056,89.1363636 Z"/>
    <path fill="#1D244C" fill-rule="nonzero" d="M29.3417978,252.749773 L283.408304,252.749773 C283.414659,253.958326 282.93848,255.11958 282.085132,255.976426 C281.231783,256.833272 280.07167,257.315017 278.861648,257.315 L33.8883895,257.315 C31.3773762,257.315 29.3417978,255.281864 29.3417978,252.773864 L29.3417978,252.749773 Z"/>
    <path fill="#FCD30E" fill-rule="nonzero" stroke="#C2A000" stroke-width="3.614" d="M156.417228,174.056818 C141.657815,164.888024 132.676759,148.764288 132.659176,131.403864 L132.659176,124.586136 C140.185226,123.430898 147.330583,120.512618 153.510787,116.07 L156.356929,114.070455 L159.203071,116.07 C165.383275,120.512618 172.528632,123.430898 180.054682,124.586136 L180.054682,131.403864 C180.072294,148.742902 171.137407,164.865594 156.417228,174.056818 Z"/>
    <polyline stroke="#C2A000" stroke-width="3.614" points="148.156 143.016 155.211 150.05 170.178 135.102"/>
    <path fill="#007ECC" fill-rule="nonzero" d="M129.378876,133.704545 L128.667341,129.488636 L124.217228,130.090909 C124.603146,129.332045 124.928764,128.645455 125.218202,127.958864 L125.676479,127.091591 C126.231236,126.043636 126.231236,126.091818 125.145843,125.501591 L122.142921,123.947727 L126.158876,121.863864 L124.144869,117.7925 C125.471461,117.997273 126.629213,118.153864 127.762846,118.382727 C128.389963,118.503182 128.691461,118.382727 128.76382,117.672045 C128.908539,116.4675 129.125618,115.347273 129.318577,114.058409 C129.704494,114.407727 130.018052,114.684773 130.319551,114.973864 C130.883104,115.478486 131.414763,116.017553 131.911461,116.587955 C132.442097,117.214318 132.803895,117.13 133.286292,116.587955 C134.021948,115.720682 134.805843,114.901591 135.565618,114.058409 L135.855056,114.227045 C136.048015,115.431591 136.289213,116.527727 136.421873,117.684091 C136.506292,118.418864 136.80779,118.563409 137.422846,118.430909 C138.556479,118.226136 139.702172,118.069545 141.040824,117.864773 L139.497154,120.948409 C139.002697,121.948182 138.990637,121.948182 139.967491,122.43 L143.030712,124.02 L141.535281,124.790909 C140.966064,125.125283 140.37819,125.426911 139.774532,125.694318 C139.050936,125.971364 139.050936,126.356818 139.412734,126.898864 C139.967491,127.898636 140.474007,128.958636 141.064944,130.115 C139.858951,129.922273 138.737378,129.729545 137.639925,129.572955 C136.542472,129.416364 136.433933,129.572955 136.361573,130.452273 C136.253034,131.560455 135.999775,132.668636 135.758577,134.065909 C134.757603,133.066136 133.973708,132.271136 133.213933,131.391818 C132.707416,130.813636 132.357678,130.897955 131.887341,131.391818 C131.115506,132.222955 130.307491,133.017955 129.475356,133.800909 L129.378876,133.704545 Z"/>
    <path fill="#61C3FF" fill-rule="nonzero" d="M40.25603 184.680909L31.2472659 184.680909C31.7570864 183.896305 32.0979618 183.014374 32.2482397 182.091136L33.4542322 174.731364 37.5666667 174.731364 37.9405243 172.430682 33.8401498 172.430682 34.0813483 170.997273 34.4431461 168.708636 34.5999251 167.708864C34.9255431 165.709318 35.9506367 164.817955 37.7596255 164.817955L39.4238951 164.817955 39.7977528 162.613636 38.0128839 162.613636C35.0233528 162.417926 32.4204788 164.633319 32.1397004 167.6125L31.9708614 168.708636 31.6090637 170.997273 31.3678652 172.442727 26.7971536 172.442727 26.4232959 174.731364 30.9698876 174.731364 29.7638951 181.958636C29.75941 182.755814 29.414271 183.51313 28.8153193 184.040036 28.2163675 184.566941 27.4206266 184.813271 26.6283146 184.717045L26.5318352 184.717045 26.1579775 187.126136 39.930412 187.126136 40.25603 184.680909zM240.595506 59.1672727L235.638876 59.1672727 235.397678 57.6615909 241.198502 57.6615909 240.595506 59.1672727zM237.037828 67.9122727L236.036854 61.4318182 239.654831 61.4318182 237.037828 67.9122727zM229.403895 59.1672727L229.946592 57.6615909 232.877154 57.6615909 233.118352 59.1672727 229.403895 59.1672727zM222.855356 67.9122727L221.902622 61.4318182 225.520599 61.4318182 222.855356 67.9122727zM221.215206 57.6615909L227.02809 57.6615909 226.413034 59.1672727 221.504644 59.1672727 221.215206 57.6615909zM231.984719 52.1327273L232.527416 55.3970455 230.814906 55.3970455 231.984719 52.1327273zM248.241498 57.6615909L248.615356 55.3609091 244.997378 55.3609091 248.0003 47.3145455 245.467715 47.3145455 242.139176 55.4090909 235.02382 55.4090909 233.745468 47.4109091 231.188764 47.4109091 227.932584 55.4090909 220.829288 55.4090909 219.490637 47.3386364 216.958052 47.3386364 218.284644 55.4090909 214.666667 55.4090909 214.292809 57.7097727 218.670562 57.7097727 218.91176 59.2034091 214.08779 59.2034091 213.701873 61.5040909 219.249438 61.5040909 220.925768 71.8511364 224.688464 71.8511364 228.487341 61.5040909 233.49221 61.5040909 235.168539 71.8390909 238.943296 71.8390909 242.742172 61.4920455 247.566142 61.4920455 247.94 59.1913636 243.562247 59.1913636 244.117004 57.6977273 248.241498 57.6615909zM30.2462921 125.465455C28.5699625 128.163636 25.2414232 128.633409 23.348015 128.669545L23.2394757 128.669545C21.5421044 128.77843 19.8885287 128.103586 18.7531835 126.838636 17.6970175 125.401806 17.2903716 123.589381 17.6316105 121.839773L32.5617978 121.839773 32.9356554 119.551136 17.9331086 119.551136 18.1743071 118.0575 32.5617978 118.0575 32.9235955 115.780909 18.5722846 115.780909C19.488839 111.3 22.4676404 108.770455 26.7609738 108.770455 27.0942317 108.747377 27.4286897 108.747377 27.7619476 108.770455 30.2583521 109.011364 31.9588015 110.215909 32.3929588 112.095L32.3929588 112.191364 35.251161 112.191364 35.251161 112.046818C35.0072804 110.720781 34.3485803 109.506178 33.3698127 108.577727 31.9143104 107.278912 30.0501049 106.529012 28.0996255 106.457727L27.0986517 106.457727C19.2235206 106.457727 17.0406742 110.938636 15.9552809 115.792955L10.5162547 115.792955 10.142397 118.081591 15.5090637 118.081591 15.3522846 118.972955 15.2558052 119.563182 10.5162547 119.563182 10.142397 121.863864 14.966367 121.863864C14.6505596 124.150647 15.2579648 126.469017 16.6547566 128.308182 18.3445199 130.165405 20.7934354 131.14646 23.2997753 130.970227 29.1247191 130.970227 31.7417228 128.091364 32.9477154 125.670227L33.0321348 125.513636 30.4030712 125.441364 30.2462921 125.465455z"/>
    <polygon fill="#61C3FF" fill-rule="nonzero" points="146.034 27.644 142.826 27.644 134.565 40.232 131.55 27.644 128.716 27.644 132.044 40.425 126.436 40.425 126.062 42.713 132.635 42.713 132.719 43.002 132.454 44.195 125.761 44.195 125.375 46.483 131.96 46.483 130.73 52.133 133.6 52.133 134.782 46.483 141.354 46.483 141.728 44.195 135.264 44.195 135.481 43.135 135.771 42.713 142.042 42.713 142.416 40.425 137.338 40.425"/>
    <path fill="#61C3FF" fill-rule="nonzero" d="M281.213333 210.795455C282.375136 210.698252 283.466773 210.199938 284.300674 209.386136 285.023869 208.618963 285.387611 207.581573 285.301648 206.531364 285.274175 205.885218 285.032348 205.266544 284.614232 204.772727 284.01539 204.137019 283.26409 203.664392 282.431386 203.399545L281.213333 210.795455zM281.69573 192.534545C280.576634 192.598751 279.514856 193.05021 278.692809 193.811364 277.965174 194.590449 277.60154 195.640659 277.691835 196.702273 277.726374 197.37234 277.990345 198.010214 278.439551 198.509091 278.991134 199.130023 279.705377 199.584755 280.501798 199.822045L281.69573 192.534545zM284.96397 187.535682L284.855431 188.174091 284.541873 190.017045C286.170451 190.116302 287.769705 190.495261 289.269363 191.137273L288.835206 193.931818C287.385322 193.1772 285.797935 192.722449 284.168015 192.594773L282.853483 200.761591C284.362601 201.223235 285.750586 202.013067 286.917678 203.074318 287.760734 203.969991 288.241902 205.145721 288.26839 206.374773 288.429706 208.194427 287.755429 209.988867 286.435281 211.253182 284.859785 212.602428 282.88673 213.401699 280.815356 213.529773L280.405318 215.938864 277.933034 215.938864 278.343071 213.529773C276.308677 213.443648 274.306658 212.990674 272.433708 212.192727L272.831685 209.590909C273.717245 209.992779 274.643003 210.299649 275.593408 210.506364 276.60949 210.772992 277.654391 210.914572 278.704869 210.927955L280.09176 202.556364C278.613937 202.159037 277.263867 201.387309 276.172285 200.315909 275.329715 199.349093 274.855675 198.116362 274.833633 196.834773 274.652677 195.071683 275.298231 193.324109 276.582322 192.100909 278.113967 190.813763 280.033002 190.075905 282.033408 190.005L282.334906 188.210227 282.443446 187.571818 284.96397 187.535682zM303.825693 125.272727L284.614232 125.272727 284.180075 127.537273 288.027191 127.537273C289.171803 127.549396 290.281191 127.934255 291.186891 128.633409 292.151377 129.320782 292.788581 130.375701 292.94764 131.548409L283.2997 131.548409 282.925843 133.837045 292.573783 133.837045C292.207842 134.527155 291.707627 135.13734 291.102472 135.631818 289.78794 136.764091 287.737753 137.306136 284.879551 137.306136L282.371086 137.306136 281.961049 139.546591 290.704494 149.700909 294.117453 149.700909 285.096629 139.546591 284.493633 139.546591C288.340749 139.546591 291.259251 138.763636 293.152659 137.1375 294.313357 136.331834 295.164197 135.154834 295.564644 133.800909L302.233783 133.800909 302.60764 131.512273 295.757603 131.512273 295.757603 131.367727C295.787773 129.9399 295.219422 128.564392 294.189813 127.573409L303.488015 127.573409 303.825693 125.272727z"/>
    <path fill="#FFF" fill-rule="nonzero" d="M171.070037,0.493863636 C211.048689,25.3315909 236.193633,61.3113636 236.193633,101.338409 L236.193633,311.194318 C287.038277,301.883182 321.662322,283.429545 321.662322,262.181364 L321.662322,111.155455 C321.650262,52.2772727 255.127715,4.1075 171.070037,0.493863636 Z" opacity=".4"/>
  </g>
</svg>
